<svg width="24" height="24" viewBox="0 0 24 24" fill="none" xmlns="http://www.w3.org/2000/svg">
<g clip-path="url(#clip0_578_12512)">
<path d="M15.9502 2.02141e-10C18.7972 4.96967e-10 20.2211 -0.000252289 21.3047 0.5625C22.2179 1.03688 22.9631 1.7821 23.4375 2.69531C24.0003 3.77894 24 5.20276 24 8.0498V15.9502C24 18.7972 24.0003 20.2211 23.4375 21.3047C22.9631 22.2179 22.2179 22.9631 21.3047 23.4375C20.2211 24.0003 18.7972 24 15.9502 24H8.0498C5.20276 24 3.77894 24.0003 2.69531 23.4375C1.7821 22.9631 1.03688 22.2179 0.5625 21.3047C-0.000252289 20.2211 4.96967e-10 18.7972 2.02141e-10 15.9502V8.0498C4.96967e-10 5.20276 -0.000252484 3.77894 0.5625 2.69531C1.03688 1.7821 1.7821 1.03688 2.69531 0.5625C3.77894 -0.000252484 5.20276 4.96967e-10 8.0498 2.02141e-10H15.9502ZM16.7969 9.25488C16.0191 9.2452 15.2578 9.48205 14.623 9.93164C13.9884 10.3812 13.5126 11.0209 13.2637 11.7578C13.0785 12.2815 12.9849 12.8332 12.9883 13.3887C12.9804 13.9538 13.071 14.5164 13.2549 15.0508C13.4187 15.5287 13.6735 15.9702 14.0049 16.3516C14.3377 16.7156 14.746 17.0025 15.2012 17.1924C15.7044 17.3978 16.2436 17.5003 16.7871 17.4932C17.5486 17.5173 18.2988 17.3041 18.9336 16.8828C19.5953 16.3872 20.0627 15.6753 20.2539 14.8711H18.458C18.3583 15.1535 18.1681 15.3953 17.917 15.5586C17.6083 15.7822 17.2345 15.8983 16.8535 15.8887C16.6132 15.9038 16.3723 15.8699 16.1455 15.7891C15.9186 15.7082 15.7108 15.5817 15.5342 15.418C15.1843 14.9927 15.0123 14.4484 15.0557 13.8994H20.4023C20.4425 13.3152 20.3952 12.7282 20.2607 12.1582C20.1381 11.6275 19.9155 11.1246 19.6055 10.6768C19.3022 10.2499 18.9054 9.89727 18.4463 9.64551C17.9385 9.3775 17.371 9.24292 16.7969 9.25488ZM3.75 6.5V17.29H8.71875C9.17114 17.2912 9.6216 17.231 10.0576 17.1104C10.4782 16.9966 10.8745 16.8065 11.2266 16.5498C11.5685 16.2903 11.8444 15.9539 12.0332 15.5684C12.2374 15.1265 12.3387 14.6439 12.3281 14.1572C12.3467 13.5468 12.1844 12.9446 11.8623 12.4258C11.5268 11.936 11.0273 11.5823 10.4541 11.4277C10.8765 11.2295 11.238 10.9199 11.499 10.5332C11.747 10.1238 11.8696 9.65013 11.8506 9.17188C11.8617 8.73646 11.7807 8.30349 11.6133 7.90137C11.4675 7.57417 11.238 7.29065 10.9482 7.08008C10.6345 6.86832 10.2829 6.71844 9.91309 6.6377C9.47395 6.53805 9.02444 6.49164 8.57422 6.5H3.75ZM8.45898 12.4863C8.88027 12.4627 9.29698 12.5867 9.63672 12.8369C9.79705 12.9882 9.92071 13.1745 9.99805 13.3809C10.0754 13.5873 10.1045 13.809 10.083 14.0283C10.0947 14.2689 10.0491 14.5089 9.9502 14.7285C9.86484 14.9009 9.73685 15.0492 9.5791 15.1592C9.41812 15.2692 9.23726 15.3476 9.04688 15.3896C8.83857 15.4382 8.62499 15.4609 8.41113 15.458H6.00098V12.4863H8.45898ZM16.7305 10.8838C16.9415 10.8693 17.1535 10.9004 17.3516 10.9746C17.5497 11.0488 17.7303 11.1648 17.8799 11.3145L17.8809 11.3154C18.1592 11.6717 18.3237 12.1035 18.3525 12.5547H15.041C15.0531 12.3817 15.0849 12.2107 15.1357 12.0449C15.1923 11.846 15.286 11.6597 15.4111 11.4951C15.5524 11.3196 15.7265 11.1731 15.9238 11.0645C16.1727 10.9358 16.4505 10.8732 16.7305 10.8838ZM8.12402 8.35254C8.3183 8.34894 8.51236 8.36638 8.70313 8.40332C8.87906 8.43199 9.04766 8.49682 9.19727 8.59375C9.34483 8.68179 9.46433 8.81009 9.54102 8.96387C9.63147 9.15715 9.6742 9.3698 9.66504 9.58301C9.68112 9.76542 9.65343 9.94892 9.58594 10.1191C9.5184 10.2894 9.4122 10.4416 9.27539 10.5635C8.98959 10.7726 8.64094 10.8788 8.28711 10.8643V10.874H6.00098V8.35254H8.12402ZM14.6143 7.2207V8.28125H18.7637V7.2207H14.6143Z" fill="#F9F9F9"/>
</g>
<defs>
<clipPath id="clip0_578_12512">
<rect width="24" height="24" fill="white"/>
</clipPath>
</defs>
</svg>
